<?xml version="1.0" encoding="utf-8"?>
<!-- Generator: Adobe Illustrator 22.1.0, SVG Export Plug-In . SVG Version: 6.00 Build 0)  -->
<svg version="1.1" id="Layer_1" xmlns="http://www.w3.org/2000/svg" xmlns:xlink="http://www.w3.org/1999/xlink" x="0px" y="0px"
	 viewBox="0 0 29 29" style="enable-background:new 0 0 29 29;" xml:space="preserve">
<style type="text/css">
	.st0{fill:#76AED3;}
</style>
<g>
	<path class="st0" d="M27,7.2L16.4,19.7l-6.5,2.1l1.2-6.5l11.1-13c-0.3-0.2-0.6-0.3-0.8-0.5C15.9-1.2,8.9-0.3,4.3,4.3
		c-5.7,5.7-5.7,14.8,0,20.5c5.7,5.7,14.8,5.7,20.5,0C29.5,20,30.3,12.8,27,7.2C27,7.3,27,7.2,27,7.2z"/>
	<path class="st0" d="M24.8,4.3c-0.3-0.3-0.7-0.7-1.1-0.9L12.8,16.5l2.2,1.8l10.8-13v0C25.4,5,25.1,4.6,24.8,4.3z"/>
</g>
</svg>
